<svg xmlns="http://www.w3.org/2000/svg" viewBox="0 0 800 200" fill="none">
  <!-- Primary ridge — left peak higher, crosses over secondary near center -->
  <path
    d="M0 155 C30 152, 70 142, 120 124 C160 110, 200 90, 260 74 C300 64, 330 60, 360 66 C385 72, 400 84, 420 92 C445 84, 465 72, 500 66 C535 60, 560 64, 600 76 C650 94, 700 118, 750 138 C775 146, 800 152, 800 152"
    stroke="#C4A96E" stroke-width="6" stroke-linecap="round" stroke-linejoin="round"
  />
  <!-- Secondary ridge — slightly offset, weaves with primary -->
  <path
    d="M20 160 C60 156, 100 148, 150 132 C190 120, 230 102, 280 86 C315 76, 345 72, 375 78 C400 84, 415 94, 435 100 C455 94, 475 84, 505 78 C535 72, 565 76, 600 86 C650 104, 690 120, 730 134 C760 144, 790 152, 800 155"
    stroke="#B08D4A" stroke-width="4.5" stroke-linecap="round" stroke-linejoin="round"
  />
  <!-- Lower accent line left — tapers out -->
  <path
    d="M80 168 C110 164, 150 158, 200 150 C240 144, 270 140, 310 138 C340 137, 360 140, 380 144"
    stroke="#96733A" stroke-width="3" stroke-linecap="round"
  />
  <!-- Lower accent line right — tapers out -->
  <path
    d="M420 144 C440 140, 460 137, 490 138 C530 140, 560 144, 600 150 C650 158, 690 164, 720 168"
    stroke="#96733A" stroke-width="3" stroke-linecap="round"
  />
  <!-- Ground wisp left -->
  <path
    d="M140 176 C170 173, 210 168, 260 164 C290 162, 310 163, 330 166"
    stroke="#7A5C30" stroke-width="2" stroke-linecap="round"
  />
  <!-- Ground wisp right -->
  <path
    d="M470 166 C490 163, 510 162, 540 164 C590 168, 630 173, 660 176"
    stroke="#7A5C30" stroke-width="2" stroke-linecap="round"
  />
</svg>
